#N canvas 0 1 1916 964 16;
#X declare -lib mrpeach;
#X obj 279 384 bng 15 250 50 0 empty empty empty 17 7 0 10 -262144
-1 -1;
#X obj 778 381 bng 15 250 50 0 empty empty empty 17 7 0 10 -262144
-1 -1;
#X obj 366 319 select remix nf;
#X msg 366 178 symbol remix;
#X msg 540 177 symbol nf;
#X obj 366 65 bng 15 250 50 0 empty empty empty 17 7 0 10 -262144 -1
-1;
#X obj 540 63 bng 15 250 50 0 empty empty empty 17 7 0 10 -262144 -1
-1;
#X text -9 317 Multiplexing from names;
#X msg 279 458 start;
#X obj 387 533 readsf~ 2;
#X obj 279 414 trigger bang bang bang;
#X text -5 116 Global STOP;
#X obj 376 791 env~;
#X obj 435 791 env~;
#X obj 381 872 vu 15 120 empty empty -1 -8 0 10 -66577 -1 1 0;
#X obj 439 873 vu 15 120 empty empty -1 -8 0 10 -66577 -1 1 0;
#X msg 387 489 open remix2.wav;
#X obj 394 829 - 100;
#X obj 457 829 - 100;
#X text -7 819 "vu" objects to clearly;
#X text -5 859 playing;
#X text -5 838 monitor which song is;
#X text -5 173 Clear Song Selection;
#X text -5 194 with names;
#X obj 385 749 dac~ 1 2;
#X msg 140 110 stop;
#X obj 278 510 r toStop;
#X obj 140 147 s toStop;
#X msg 779 453 start;
#X obj 974 566 bng 15 250 50 0 empty empty empty 17 7 0 10 -262144
-1 -1;
#X obj 887 528 readsf~ 2;
#X obj 779 409 trigger bang bang bang;
#X obj 874 786 env~;
#X obj 919 786 env~;
#X obj 874 867 vu 15 120 empty empty -1 -8 0 10 -66577 -1 1 0;
#X obj 932 868 vu 15 120 empty empty -1 -8 0 10 -66577 -1 1 0;
#X obj 887 824 - 100;
#X obj 950 824 - 100;
#X obj 878 744 dac~ 1 2;
#X obj 778 505 r toStop;
#X msg 887 484 open nf.wav;
#X floatatom 295 671 5 140 600 0 Freq_coupure - -;
#X obj 386 615 *~;
#X obj 462 614 *~;
#X obj 511 637 line;
#X obj 535 564 hsl 128 15 0 5 0 0 empty empty Volume_adjustment -2
-8 0 10 -262144 -1 -1 5700 1;
#X obj 385 696 bp~;
#X obj 462 696 bp~;
#X floatatom 298 744 5 0 7 0 Cut - -;
#X msg 511 607 \$1 5;
#X text -10 654 Filtre passe bas;
#X obj 174 710 receive cut;
#X obj 1660 677 send cut;
#X text 7 19 TRAITEMENT SON;
#X text 1254 58 RECEPTION OSC;
#X text -11 343 All the songs;
#X obj 496 459 s toStopTheOtherSongs;
#X obj 996 454 s toStopTheOtherSongs;
#X obj 140 72 r toStopTheOtherSongs;
#X text -9 405 trigger to;
#X text -1 426 1 stop all songs;
#X text -2 446 2 load the chosen song;
#X text -3 465 3 start the chosen song;
#X obj 177 600 receive freq_c;
#X obj 1661 737 send freq_c;
#X text 1658 647 position x;
#X text 1659 709 position y;
#X obj 1378 99 import mrpeach;
#X obj 1369 212 unpackOSC;
#X text 7 -132 LOGIC;
#X obj 808 -19 spigot;
#X obj 691 -14 spigot;
#X obj 803 -61 == 25;
#X obj 1292 341 routeOSC /x /y /z;
#X floatatom 1292 413 5 0 0 0 - - -;
#X floatatom 1350 416 5 0 0 0 - - -;
#X floatatom 1411 418 5 0 0 0 - - -;
#X floatatom 1747 513 5 0 0 0 - - -;
#X floatatom 1802 514 5 0 0 0 - - -;
#X floatatom 1863 516 5 0 0 0 - - -;
#X obj 1365 251 routeOSC /test;
#X obj 1738 451 routeOSC /x /y /z;
#X floatatom 1991 379 5 0 0 0 - - -;
#X floatatom 2069 385 5 0 0 0 - - -;
#X floatatom 2130 387 5 0 0 0 - - -;
#X obj 1982 317 routeOSC /x /y /z;
#X obj 1353 287 routeOSC /posi /ori /quat /accel;
#X floatatom 1734 406 5 0 0 0 - - -;
#X floatatom 1789 407 5 0 0 0 - - -;
#X floatatom 1850 409 5 0 0 0 - - -;
#X obj 1725 344 routeOSC /r /i /j /k;
#X floatatom 1915 405 5 0 0 0 - - -;
#X obj 874 610 *~;
#X obj 950 609 *~;
#X obj 1005 657 line;
#X obj 689 597 receive freq_c;
#X floatatom 1047 606 5 1 20 0 - - -;
#X obj 868 704 lop~;
#X obj 951 707 lop~;
#X obj 689 654 hsl 128 15 60 8000 0 0 empty empty Freq_coupure -2 -8
0 10 -262144 -1 -1 0 1;
#X obj 1046 752 dbtorms;
#X floatatom 1115 796 5 0 0 0 - - -;
#X floatatom 1039 879 5 0 0 0 - - -;
#X text 584 695 best set to freq_coup = 60;
#X text 1022 573 best set to line = 5;
#X obj 694 762 * -0.000504;
#X obj 737 810 + 5 \, 2;
#X obj 1256 259 print;
#X obj 1377 165 udpreceive 9001;
#X msg 1694 -46 262;
#X msg 1840 19 7100;
#X msg 1744 -47 6056;
#X msg 1894 20 23162;
#X text 1868 -59 corners;
#X floatatom 1302 572 5 0 0 0 - - -;
#X text 1692 22 corners;
#X obj 1302 523 - \$1;
#X obj 1316 635 / \$1;
#X floatatom 1318 684 5 0 0 0 - - -;
#X floatatom 1397 567 5 0 0 0 - - -;
#X obj 1390 521 - \$1;
#X obj 1697 -134 bng 15 250 50 0 empty empty empty 17 7 0 10 -262144
-1 -1;
#X obj 300 781 / 90;
#X obj 1309 734 send relat_x;
#X obj 445 -277 r relat_x;
#X obj 1809 571 abs;
#X floatatom 455 -240 5 0 0 0 - - -;
#X msg 882 9 1 \$1;
#X obj 862 63 route 0 0.21 50 55;
#X obj 691 -50 <= 0.2;
#X obj 900 -63 moses 50;
#X obj 427 -194 <= 0.2;
#X obj 397 -102 change;
#X floatatom 418 -49 5 0 1 0 - - -;
#X obj 366 32 spigot;
#X text 1654 623 en fonction de l'orientation cut les hautes freq;
#X obj 1864 569 abs;
#X floatatom 1465 571 5 0 0 0 - - -;
#X obj 1465 522 - \$1;
#X obj 1479 634 / \$1;
#X floatatom 1481 683 5 0 0 0 - - -;
#X floatatom 1560 566 5 0 0 0 - - -;
#X obj 1553 520 - \$1;
#X obj 1483 734 send relat_y;
#X floatatom 587 -227 5 0 0 0 - - -;
#X obj 529 -89 change;
#X floatatom 524 -50 5 0 1 0 - - -;
#X obj 553 -262 r relat_y;
#X obj 559 -181 >= 0.83;
#X floatatom 448 51 5 0 0 0 - - -;
#X obj 205 629 * 2;
#X obj 464 -8 &&;
#X obj 306 -61 t b b;
#X text 1695 -94 Mapping Pièce - coins extrêmes;
#X text 1696 -166 Bang pour calculs;
#X obj 368 -12 change;
#X floatatom 292 17 5 0 0 0 - - -;
#X obj 297 -201 t b b;
#X obj 404 -133 &&;
#X obj 369 -193 >= 0;
#X floatatom 348 -153 5 0 0 0 - - -;
#X floatatom 453 -159 5 0 0 0 - - -;
#X connect 0 0 10 0;
#X connect 1 0 31 0;
#X connect 2 0 0 0;
#X connect 2 1 1 0;
#X connect 3 0 2 0;
#X connect 4 0 2 0;
#X connect 5 0 3 0;
#X connect 6 0 4 0;
#X connect 8 0 9 0;
#X connect 9 0 42 0;
#X connect 9 1 43 0;
#X connect 10 0 8 0;
#X connect 10 1 16 0;
#X connect 10 2 56 0;
#X connect 12 0 17 0;
#X connect 13 0 18 0;
#X connect 16 0 9 0;
#X connect 17 0 14 0;
#X connect 18 0 15 0;
#X connect 25 0 27 0;
#X connect 26 0 9 0;
#X connect 28 0 30 0;
#X connect 30 0 92 0;
#X connect 30 1 93 0;
#X connect 30 2 29 0;
#X connect 31 0 28 0;
#X connect 31 1 40 0;
#X connect 31 2 57 0;
#X connect 32 0 36 0;
#X connect 33 0 37 0;
#X connect 33 0 100 0;
#X connect 33 0 102 0;
#X connect 36 0 34 0;
#X connect 37 0 35 0;
#X connect 39 0 30 0;
#X connect 40 0 30 0;
#X connect 41 0 46 1;
#X connect 41 0 47 1;
#X connect 42 0 46 0;
#X connect 43 0 47 0;
#X connect 44 0 43 1;
#X connect 44 0 42 1;
#X connect 45 0 49 0;
#X connect 46 0 24 0;
#X connect 46 0 12 0;
#X connect 47 0 24 1;
#X connect 47 0 13 0;
#X connect 48 0 122 0;
#X connect 49 0 44 0;
#X connect 51 0 48 0;
#X connect 58 0 25 0;
#X connect 63 0 150 0;
#X connect 68 0 80 0;
#X connect 68 0 107 0;
#X connect 72 0 70 1;
#X connect 72 0 70 0;
#X connect 73 0 74 0;
#X connect 73 1 75 0;
#X connect 73 2 76 0;
#X connect 74 0 116 0;
#X connect 75 0 138 0;
#X connect 77 0 125 0;
#X connect 80 0 86 0;
#X connect 81 0 77 0;
#X connect 81 1 78 0;
#X connect 81 2 79 0;
#X connect 85 0 82 0;
#X connect 85 1 83 0;
#X connect 85 2 84 0;
#X connect 86 0 73 0;
#X connect 86 1 81 0;
#X connect 86 2 90 0;
#X connect 86 3 85 0;
#X connect 90 0 87 0;
#X connect 90 1 88 0;
#X connect 90 2 89 0;
#X connect 90 3 91 0;
#X connect 92 0 97 0;
#X connect 93 0 98 0;
#X connect 94 0 93 1;
#X connect 94 0 92 1;
#X connect 95 0 99 0;
#X connect 96 0 94 0;
#X connect 97 0 38 0;
#X connect 97 0 32 0;
#X connect 98 0 38 1;
#X connect 98 0 33 0;
#X connect 99 0 97 1;
#X connect 99 0 98 1;
#X connect 99 0 105 0;
#X connect 100 0 101 0;
#X connect 105 0 106 0;
#X connect 106 0 96 0;
#X connect 108 0 68 0;
#X connect 108 0 121 0;
#X connect 109 0 120 1;
#X connect 109 0 116 1;
#X connect 110 0 120 0;
#X connect 111 0 138 1;
#X connect 111 0 142 1;
#X connect 112 0 142 0;
#X connect 114 0 117 0;
#X connect 116 0 114 0;
#X connect 117 0 118 0;
#X connect 118 0 123 0;
#X connect 119 0 117 1;
#X connect 120 0 119 0;
#X connect 121 0 111 0;
#X connect 121 0 109 0;
#X connect 121 0 110 0;
#X connect 121 0 112 0;
#X connect 122 0 46 2;
#X connect 122 0 47 2;
#X connect 124 0 126 0;
#X connect 124 0 152 0;
#X connect 124 0 157 0;
#X connect 126 0 131 0;
#X connect 126 0 159 0;
#X connect 127 0 128 0;
#X connect 129 0 71 0;
#X connect 129 0 71 1;
#X connect 131 0 161 0;
#X connect 132 0 133 0;
#X connect 133 0 151 0;
#X connect 134 0 5 0;
#X connect 136 0 64 0;
#X connect 137 0 139 0;
#X connect 138 0 137 0;
#X connect 139 0 140 0;
#X connect 140 0 143 0;
#X connect 141 0 139 1;
#X connect 142 0 141 0;
#X connect 144 0 148 0;
#X connect 145 0 146 0;
#X connect 146 0 151 1;
#X connect 147 0 144 0;
#X connect 148 0 145 0;
#X connect 150 0 41 0;
#X connect 151 0 149 0;
#X connect 151 0 155 0;
#X connect 152 0 133 0;
#X connect 152 1 146 0;
#X connect 155 0 134 1;
#X connect 155 0 156 0;
#X connect 155 0 134 0;
#X connect 157 0 160 0;
#X connect 157 1 161 0;
#X connect 158 0 132 0;
#X connect 159 0 160 0;
#X connect 160 0 158 0;
#X connect 161 0 158 1;
