#N canvas 0 0 1918 966 16;
#X declare -lib mrpeach;
#X obj 323 1976 bng 15 250 50 0 empty empty empty 17 7 0 10 -262144
-1 -1;
#X obj 1928 962 bng 15 250 50 0 empty empty empty 17 7 0 10 -262144
-1 -1;
#X msg 366 178 symbol remix;
#X obj 363 -157 bng 15 250 50 0 empty empty empty 17 7 0 10 -262144
-1 -1;
#X obj 1037 -147 bng 15 250 50 0 empty empty empty 17 7 0 10 -262144
-1 -1;
#X text 1338 281 Multiplexing from names;
#X msg 323 2050 start;
#X obj 431 2125 readsf~ 2;
#X obj 323 2006 trigger bang bang bang;
#X text -576 -422 Global STOP;
#X obj 422 2372 env~;
#X obj 481 2372 env~;
#X obj 427 2453 vu 15 120 empty empty -1 -8 0 10 -66577 -1 1 0;
#X obj 485 2454 vu 15 120 empty empty -1 -8 0 10 -66577 -1 1 0;
#X obj 440 2410 - 100;
#X obj 503 2410 - 100;
#X text 167 2457 "vu" objects to clearly;
#X text 153 2244 playing;
#X text 169 2476 monitor which song is;
#X obj 431 2330 dac~ 1 2;
#X msg -431 -428 stop;
#X obj 322 2102 r toStop;
#X obj -431 -391 s toStop;
#X msg 1928 1034 start;
#X obj 2123 1147 bng 15 250 50 0 empty empty empty 17 7 0 10 -262144
-1 -1;
#X obj 2036 1109 readsf~ 2;
#X obj 1928 990 trigger bang bang bang;
#X obj 2023 1367 env~;
#X obj 2068 1367 env~;
#X obj 2023 1448 vu 15 120 empty empty -1 -8 0 10 -66577 -1 1 0;
#X obj 2081 1449 vu 15 120 empty empty -1 -8 0 10 -66577 -1 1 0;
#X obj 2036 1405 - 100;
#X obj 2099 1405 - 100;
#X obj 2027 1325 dac~ 1 2;
#X obj 1927 1086 r toStop;
#X msg 2036 1065 open nf.wav;
#X floatatom 341 2252 5 140 600 0 Freq_coupure - -;
#X obj 432 2196 *~;
#X obj 508 2195 *~;
#X obj 557 2218 line;
#X obj 431 2277 bp~;
#X obj 508 2277 bp~;
#X floatatom 344 2325 5 0 180 0 Cut - -;
#X msg 557 2188 \$1 5;
#X text 125 2150 Filtre passe bas;
#X obj 220 2291 receive cut;
#X obj -182 -772 send cut;
#X text -568 -79 TRAITEMENT SON;
#X text -588 -1391 RECEPTION OSC;
#X text 1337 306 All the songs;
#X obj 540 2051 s toStopTheOtherSongs;
#X obj 2145 1035 s toStopTheOtherSongs;
#X obj -431 -466 r toStopTheOtherSongs;
#X text -589 438 trigger to;
#X text -581 459 1 stop all songs;
#X text -582 479 2 load the chosen song;
#X text -583 498 3 start the chosen song;
#X obj 223 2181 receive freq_c;
#X obj -181 -712 send freq_c;
#X text -184 -802 position x;
#X text -183 -740 position y;
#X obj -464 -1350 import mrpeach;
#X obj -473 -1237 unpackOSC;
#X text -563 -603 LOGIC;
#X obj 1080 -925 spigot;
#X obj 961 -932 spigot;
#X obj 1075 -967 == 25;
#X obj -550 -1108 routeOSC /x /y /z;
#X floatatom -550 -1036 5 0 0 0 - - -;
#X floatatom -492 -1033 5 0 0 0 - - -;
#X floatatom -431 -1031 5 0 0 0 - - -;
#X floatatom -95 -936 5 0 0 0 - - -;
#X floatatom -40 -935 5 0 0 0 - - -;
#X floatatom 21 -933 5 0 0 0 - - -;
#X obj -477 -1198 routeOSC /test;
#X obj -104 -998 routeOSC /x /y /z;
#X floatatom 173 -1059 5 0 0 0 - - -;
#X obj 140 -1132 routeOSC /x /y /z;
#X obj -489 -1162 routeOSC /posi /ori /quat /accel;
#X floatatom -108 -1043 5 0 0 0 - - -;
#X floatatom -53 -1042 5 0 0 0 - - -;
#X floatatom 8 -1040 5 0 0 0 - - -;
#X obj -117 -1105 routeOSC /r /i /j /k;
#X floatatom 73 -1044 5 0 0 0 - - -;
#X obj 2023 1191 *~;
#X obj 2099 1190 *~;
#X obj 2154 1238 line;
#X obj 1838 1178 receive freq_c;
#X floatatom 2196 1187 5 1 20 0 - - -;
#X obj 2017 1285 lop~;
#X obj 2100 1288 lop~;
#X obj 1838 1235 hsl 128 15 60 8000 0 0 empty empty Freq_coupure -2
-8 0 10 -262144 -1 -1 0 1;
#X obj 2195 1333 dbtorms;
#X floatatom 2264 1377 5 0 0 0 - - -;
#X floatatom 2188 1460 5 0 0 0 - - -;
#X text 1733 1276 best set to freq_coup = 60;
#X text 2171 1154 best set to line = 5;
#X obj 1843 1343 * -0.000504;
#X obj 1886 1391 + 5 \, 2;
#X obj -586 -1190 print;
#X obj -465 -1284 udpreceive 9001;
#X msg -148 -1495 262;
#X msg -2 -1430 7100;
#X msg -98 -1496 6056;
#X msg 52 -1429 23162;
#X text 26 -1508 corners;
#X floatatom -540 -877 5 0 0 0 - - -;
#X text -150 -1427 corners;
#X obj -540 -926 - \$1;
#X obj -526 -814 / \$1;
#X floatatom -524 -765 5 0 0 0 - - -;
#X floatatom -445 -882 5 0 0 0 - - -;
#X obj -452 -928 - \$1;
#X obj -145 -1583 bng 15 250 50 0 empty empty empty 17 7 0 10 -262144
-1 -1;
#X obj -533 -715 send relat_x;
#X obj 470 -577 r relat_x;
#X obj -33 -878 abs;
#X floatatom 470 -540 5 0 0 0 - - -;
#X msg 1154 -897 1 \$1;
#X obj 1134 -843 route 0 0.21 50 55;
#X obj 961 -968 <= 0.2;
#X obj 1172 -969 moses 50;
#X obj 470 -494 <= 0.2;
#X obj 443 -379 change;
#X floatatom 461 -349 5 0 1 0 - - -;
#X obj 363 -190 spigot;
#X text -188 -826 en fonction de l'orientation cut les hautes freq
;
#X obj 22 -880 abs;
#X floatatom -377 -878 5 0 0 0 - - -;
#X obj -377 -927 - \$1;
#X obj -363 -815 / \$1;
#X floatatom -361 -766 5 0 0 0 - - -;
#X floatatom -282 -883 5 0 0 0 - - -;
#X obj -289 -929 - \$1;
#X obj -359 -715 send relat_y;
#X floatatom 598 -543 5 0 0 0 - - -;
#X obj 572 -389 change;
#X floatatom 567 -350 5 0 1 0 - - -;
#X obj 596 -578 r relat_y;
#X obj 251 2210 * 2;
#X obj 512 -311 &&;
#X obj 339 -391 t b b;
#X text -147 -1543 Mapping Pièce - coins extrêmes;
#X text -146 -1615 Bang pour calculs;
#X obj 363 -266 change;
#X obj 338 -490 t b b;
#X obj 443 -418 &&;
#X obj 412 -493 >= 0;
#X floatatom 412 -453 5 0 0 0 - - -;
#X floatatom 470 -454 5 0 0 0 - - -;
#X text -64 -1190 Pour les quat ijk \, j'ai des 3 au moment de passer
à 1;
#X obj 346 2362 / 360;
#X floatatom 699 -452 5 0 0 0 - - -;
#X obj 776 -483 t b b;
#X obj 652 -417 &&;
#X floatatom 605 -452 5 0 0 0 - - -;
#X obj 696 -342 r init;
#X msg -428 -548 1;
#X obj -428 -507 s init;
#X floatatom 696 -303 5 0 0 0 - - -;
#X obj 406 -88 s done1;
#X obj 769 -343 r done1;
#X msg 406 -125 0;
#X obj 455 -202 == 0;
#X text 671 -371 to trigg only once when init == 1;
#X obj 512 -276 &&;
#X floatatom 566 -236 5 0 0 0 - - -;
#X text -578 -533 Global INIT;
#X msg -306 459 start;
#X obj -198 534 readsf~ 2;
#X obj -306 415 trigger bang bang bang;
#X obj -307 511 r toStop;
#X obj -89 460 s toStopTheOtherSongs;
#X obj -306 385 bng 15 250 50 0 empty empty empty 17 7 0 10 -262144
-1 -1;
#X msg -181 173 symbol welcome_msg;
#X msg 431 2081 open remix2.wav;
#X msg -198 490 open bienvenue.wav;
#X obj -205 685 env~;
#X obj -146 685 env~;
#X obj -200 766 vu 15 120 empty empty -1 -8 0 10 -66577 -1 1 0;
#X obj -142 767 vu 15 120 empty empty -1 -8 0 10 -66577 -1 1 0;
#X obj -187 723 - 100;
#X obj -124 723 - 100;
#X obj -196 643 dac~ 1 2;
#X obj -221 590 *~;
#X obj -145 589 *~;
#X obj -96 612 line;
#X msg -96 582 \$1 5;
#X obj -279 918 bng 15 250 50 0 empty empty empty 17 7 0 10 -262144
-1 -1;
#X msg -280 1006 start;
#X obj -172 1081 readsf~ 2;
#X obj -280 962 trigger bang bang bang;
#X obj -281 1058 r toStop;
#X obj -63 1007 s toStopTheOtherSongs;
#X obj -170 1190 dac~ 1 2;
#X obj -195 1137 *~;
#X obj -119 1136 *~;
#X obj -70 1159 line;
#X msg -70 1129 \$1 5;
#X msg -172 1037 open bienvenue_instr.wav;
#X text -575 -234 Global Volume Voix Google;
#X obj -557 -174 hsl 128 15 0 5 0 0 empty empty Volume_adjustment -2
-8 0 10 -262144 -1 -1 0 1;
#X obj -559 -139 s vol_google;
#X obj -96 538 r vol_google;
#X obj -70 1080 r vol_google;
#X text 403 -602 Declenche devant fenetre a droite oscillo;
#X floatatom 173 -970 5 0 0 0 - - -;
#X floatatom 287 -1058 5 0 0 0 - - -;
#X floatatom 287 -969 5 0 0 0 - - -;
#X floatatom 398 -1056 5 0 0 0 - - -;
#X floatatom 398 -967 5 0 0 0 - - -;
#X obj 175 -924 s accel_x;
#X obj 292 -922 s accel_y;
#X obj 405 -917 s accel_z;
#X text -132 -598 déclenche quand grande accel verticale;
#X obj -131 -568 r accel_z;
#X obj -125 -156 bng 15 250 50 0 empty empty empty 17 7 0 10 -262144
-1 -1;
#X obj -127 -295 change;
#X obj 31 -415 r init;
#X floatatom 31 -376 5 0 0 0 - - -;
#X text 6 -444 to trigg only once when init == 1;
#X obj -44 -331 &&;
#X obj 104 -416 r done0;
#X msg -67 -142 0;
#X obj -67 -105 s done0;
#X obj -127 -232 spigot;
#X obj -43 -251 == 0;
#X floatatom -131 -515 5 0 0 0 - - -;
#X floatatom 117 -267 5 0 0 0 - - -;
#X msg 261 459 start;
#X obj 369 534 readsf~ 2;
#X obj 261 415 trigger bang bang bang;
#X obj 260 511 r toStop;
#X obj 478 460 s toStopTheOtherSongs;
#X obj 261 385 bng 15 250 50 0 empty empty empty 17 7 0 10 -262144
-1 -1;
#X obj 362 685 env~;
#X obj 421 685 env~;
#X obj 367 766 vu 15 120 empty empty -1 -8 0 10 -66577 -1 1 0;
#X obj 425 767 vu 15 120 empty empty -1 -8 0 10 -66577 -1 1 0;
#X obj 380 723 - 100;
#X obj 443 723 - 100;
#X obj 371 643 dac~ 1 2;
#X obj 346 590 *~;
#X obj 422 589 *~;
#X obj 471 612 line;
#X msg 471 582 \$1 5;
#X obj 471 538 r vol_google;
#X msg 291 1534 start;
#X obj 399 1609 readsf~ 2;
#X obj 291 1490 trigger bang bang bang;
#X obj 290 1586 r toStop;
#X obj 508 1535 s toStopTheOtherSongs;
#X obj 392 1760 env~;
#X obj 451 1760 env~;
#X obj 397 1841 vu 15 120 empty empty -1 -8 0 10 -66577 -1 1 0;
#X obj 455 1842 vu 15 120 empty empty -1 -8 0 10 -66577 -1 1 0;
#X obj 410 1798 - 100;
#X obj 473 1798 - 100;
#X obj 401 1718 dac~ 1 2;
#X obj 376 1665 *~;
#X obj 452 1664 *~;
#X obj 501 1687 line;
#X msg 501 1657 \$1 5;
#X obj 501 1613 r vol_google;
#X msg 399 1565 open instr_jouer_ori.wav;
#X obj 598 -493 >= 0.63;
#X obj 699 -493 <= 0.76;
#X obj 173 -1013 moses 200;
#X obj 287 -1012 moses 200;
#X obj 398 -1010 moses 200;
#X obj -131 -475 >= 1;
#X obj 291 1463 bng 15 250 50 0 empty empty empty 17 7 0 10 -262144
-1 -1;
#X msg 280 994 start;
#X obj 388 1069 readsf~ 2;
#X obj 280 950 trigger bang bang bang;
#X obj 279 1046 r toStop;
#X obj 497 995 s toStopTheOtherSongs;
#X obj 280 920 bng 15 250 50 0 empty empty empty 17 7 0 10 -262144
-1 -1;
#X obj 381 1220 env~;
#X obj 440 1220 env~;
#X obj 386 1301 vu 15 120 empty empty -1 -8 0 10 -66577 -1 1 0;
#X obj 444 1302 vu 15 120 empty empty -1 -8 0 10 -66577 -1 1 0;
#X obj 399 1258 - 100;
#X obj 462 1258 - 100;
#X obj 390 1178 dac~ 1 2;
#X obj 365 1125 *~;
#X obj 441 1124 *~;
#X obj 490 1147 line;
#X msg 490 1117 \$1 5;
#X obj 490 1073 r vol_google;
#X msg 388 1025 open torfs.wav;
#X msg 369 490 open admirer_congres.wav;
#X obj -557 -307 hsl 128 15 0 5 0 0 empty empty Volume_adjustment -2
-8 0 10 -262144 -1 -1 0 1;
#X text -574 -358 Global Volume Musique;
#X obj -559 -272 s vol_musique;
#X obj 557 2146 r vol_musique;
#X msg 335 2695 start;
#X obj 443 2770 readsf~ 2;
#X obj 335 2651 trigger bang bang bang;
#X obj 334 2747 r toStop;
#X obj 552 2696 s toStopTheOtherSongs;
#X obj 436 2921 env~;
#X obj 495 2921 env~;
#X obj 441 3002 vu 15 120 empty empty -1 -8 0 10 -66577 -1 1 0;
#X obj 499 3003 vu 15 120 empty empty -1 -8 0 10 -66577 -1 1 0;
#X obj 454 2959 - 100;
#X obj 517 2959 - 100;
#X obj 445 2879 dac~ 1 2;
#X obj 420 2826 *~;
#X obj 496 2825 *~;
#X obj 545 2848 line;
#X msg 545 2818 \$1 5;
#X obj 545 2774 r vol_google;
#X obj 335 2624 bng 15 250 50 0 empty empty empty 17 7 0 10 -262144
-1 -1;
#X obj 1128 -615 r relat_x;
#X floatatom 1128 -578 5 0 0 0 - - -;
#X obj 1101 -417 change;
#X floatatom 1119 -387 5 0 1 0 - - -;
#X obj 1021 -228 spigot;
#X floatatom 1256 -581 5 0 0 0 - - -;
#X obj 1230 -427 change;
#X floatatom 1225 -388 5 0 1 0 - - -;
#X obj 1254 -616 r relat_y;
#X obj 1170 -349 &&;
#X obj 997 -429 t b b;
#X obj 1021 -304 change;
#X obj 996 -528 t b b;
#X obj 1101 -456 &&;
#X floatatom 1070 -491 5 0 0 0 - - -;
#X floatatom 1128 -492 5 0 0 0 - - -;
#X floatatom 1357 -490 5 0 0 0 - - -;
#X obj 1434 -521 t b b;
#X obj 1310 -455 &&;
#X floatatom 1263 -490 5 0 0 0 - - -;
#X obj 1354 -380 r init;
#X floatatom 1354 -341 5 0 0 0 - - -;
#X msg 1092 -161 0;
#X obj 1113 -240 == 0;
#X text 1329 -409 to trigg only once when init == 1;
#X obj 1170 -314 &&;
#X floatatom 1224 -274 5 0 0 0 - - -;
#X text 1061 -640 Declenche devant fenetre a droite oscillo;
#X obj 1092 -124 s done2;
#X obj 1427 -381 r done2;
#X msg 999 192 symbol fablab;
#X msg 823 467 start;
#X obj 931 542 readsf~ 2;
#X obj 823 423 trigger bang bang bang;
#X obj 822 519 r toStop;
#X obj 1040 468 s toStopTheOtherSongs;
#X obj 823 393 bng 15 250 50 0 empty empty empty 17 7 0 10 -262144
-1 -1;
#X obj 924 693 env~;
#X obj 983 693 env~;
#X obj 929 774 vu 15 120 empty empty -1 -8 0 10 -66577 -1 1 0;
#X obj 987 775 vu 15 120 empty empty -1 -8 0 10 -66577 -1 1 0;
#X obj 942 731 - 100;
#X obj 1005 731 - 100;
#X obj 933 651 dac~ 1 2;
#X obj 908 598 *~;
#X obj 984 597 *~;
#X obj 1033 620 line;
#X msg 1033 590 \$1 5;
#X obj 1033 546 r vol_google;
#X msg 931 498 open fablab_lancer.wav;
#X obj 1098 735 s done3;
#X text 1680 -643 déclenche quand grande accel verticale;
#X obj 1687 -201 bng 15 250 50 0 empty empty empty 17 7 0 10 -262144
-1 -1;
#X obj 1685 -340 change;
#X floatatom 1843 -421 5 0 0 0 - - -;
#X text 1818 -489 to trigg only once when init == 1;
#X obj 1768 -376 &&;
#X msg 1745 -187 0;
#X obj 1685 -277 spigot;
#X obj 1769 -296 == 0;
#X floatatom 1681 -560 5 0 0 0 - - -;
#X floatatom 1929 -312 5 0 0 0 - - -;
#X obj 1681 -520 >= 10;
#X obj 1681 -613 r accel_x;
#X obj 1745 -150 s done4;
#X obj 1916 -461 r done4;
#X obj 1843 -460 r done3;
#X msg 1098 698 1;
#X msg 1578 197 symbol lancer;
#X msg 1366 464 start;
#X obj 1474 539 readsf~ 2;
#X obj 1366 420 trigger bang bang bang;
#X obj 1365 516 r toStop;
#X obj 1583 465 s toStopTheOtherSongs;
#X obj 1366 390 bng 15 250 50 0 empty empty empty 17 7 0 10 -262144
-1 -1;
#X obj 1467 690 env~;
#X obj 1526 690 env~;
#X obj 1472 771 vu 15 120 empty empty -1 -8 0 10 -66577 -1 1 0;
#X obj 1530 772 vu 15 120 empty empty -1 -8 0 10 -66577 -1 1 0;
#X obj 1485 728 - 100;
#X obj 1548 728 - 100;
#X obj 1476 648 dac~ 1 2;
#X obj 1451 595 *~;
#X obj 1527 594 *~;
#X obj 1576 617 line;
#X msg 1576 587 \$1 5;
#X obj 1576 543 r vol_google;
#X msg 1474 495 open lance_detecte.wav;
#X obj 2230 -156 bng 15 250 50 0 empty empty empty 17 7 0 10 -262144
-1 -1;
#X obj 2321 -624 r relat_x;
#X floatatom 2321 -587 5 0 0 0 - - -;
#X obj 2294 -426 change;
#X floatatom 2312 -396 5 0 1 0 - - -;
#X obj 2214 -237 spigot;
#X floatatom 2449 -590 5 0 0 0 - - -;
#X obj 2423 -436 change;
#X floatatom 2418 -397 5 0 1 0 - - -;
#X obj 2447 -625 r relat_y;
#X obj 2363 -358 &&;
#X obj 2190 -438 t b b;
#X obj 2214 -313 change;
#X obj 2189 -537 t b b;
#X obj 2294 -465 &&;
#X floatatom 2263 -500 5 0 0 0 - - -;
#X floatatom 2321 -501 5 0 0 0 - - -;
#X floatatom 2550 -499 5 0 0 0 - - -;
#X obj 2645 -538 t b b;
#X obj 2503 -464 &&;
#X floatatom 2456 -499 5 0 0 0 - - -;
#X obj 2547 -389 r init;
#X floatatom 2547 -350 5 0 0 0 - - -;
#X msg 2285 -170 0;
#X obj 2306 -249 == 0;
#X text 2522 -418 to trigg only once when init == 1;
#X obj 2363 -323 &&;
#X floatatom 2417 -283 5 0 0 0 - - -;
#X text 2254 -649 Declenche devant fenetre a droite oscillo;
#X obj 2285 -133 s done5;
#X obj 2620 -390 r done5;
#X obj 2349 -541 <= 0.5;
#X obj 2263 -540 >= 0.47;
#X obj 2449 -540 >= 0.41;
#X obj 2550 -540 <= 0.44;
#X msg 2167 197 symbol finish;
#X obj 854 299 select welcome_msg remix fablab lancer finish;
#X msg 1872 481 start;
#X obj 1980 556 readsf~ 2;
#X obj 1872 437 trigger bang bang bang;
#X obj 1871 533 r toStop;
#X obj 2089 482 s toStopTheOtherSongs;
#X obj 1872 407 bng 15 250 50 0 empty empty empty 17 7 0 10 -262144
-1 -1;
#X obj 1973 707 env~;
#X obj 2032 707 env~;
#X obj 1978 788 vu 15 120 empty empty -1 -8 0 10 -66577 -1 1 0;
#X obj 2036 789 vu 15 120 empty empty -1 -8 0 10 -66577 -1 1 0;
#X obj 1991 745 - 100;
#X obj 2054 745 - 100;
#X obj 1982 665 dac~ 1 2;
#X obj 1957 612 *~;
#X obj 2033 611 *~;
#X obj 2082 634 line;
#X msg 2082 604 \$1 5;
#X obj 2082 560 r vol_google;
#X msg 1980 512 open finish.wav;
#X msg 443 2726 open entree_fablab.wav;
#X msg 1371 1034 start;
#X obj 1479 1109 readsf~ 2;
#X obj 1371 990 trigger bang bang bang;
#X obj 1370 1086 r toStop;
#X obj 1588 1035 s toStopTheOtherSongs;
#X obj 1371 960 bng 15 250 50 0 empty empty empty 17 7 0 10 -262144
-1 -1;
#X obj 1472 1260 env~;
#X obj 1531 1260 env~;
#X obj 1477 1341 vu 15 120 empty empty -1 -8 0 10 -66577 -1 1 0;
#X obj 1535 1342 vu 15 120 empty empty -1 -8 0 10 -66577 -1 1 0;
#X obj 1490 1298 - 100;
#X obj 1553 1298 - 100;
#X obj 1481 1218 dac~ 1 2;
#X obj 1456 1165 *~;
#X obj 1532 1164 *~;
#X obj 1581 1187 line;
#X msg 1581 1157 \$1 5;
#X obj 1581 1113 r vol_google;
#X msg 1479 1065 open instr_finish.wav;
#X obj 1070 -531 >= 0.8;
#X obj 1128 -532 <= 1;
#X obj 1357 -531 <= 1.2;
#X obj 1256 -531 > 1.05;
#X connect 0 0 8 0;
#X connect 1 0 26 0;
#X connect 2 0 438 0;
#X connect 3 0 162 0;
#X connect 3 0 2 0;
#X connect 4 0 344 0;
#X connect 4 0 336 0;
#X connect 6 0 7 0;
#X connect 7 0 37 0;
#X connect 7 1 38 0;
#X connect 7 2 313 0;
#X connect 8 0 6 0;
#X connect 8 1 175 0;
#X connect 8 2 50 0;
#X connect 10 0 14 0;
#X connect 11 0 15 0;
#X connect 14 0 12 0;
#X connect 15 0 13 0;
#X connect 20 0 22 0;
#X connect 21 0 7 0;
#X connect 23 0 25 0;
#X connect 25 0 84 0;
#X connect 25 1 85 0;
#X connect 25 2 24 0;
#X connect 26 0 23 0;
#X connect 26 1 35 0;
#X connect 26 2 51 0;
#X connect 27 0 31 0;
#X connect 28 0 32 0;
#X connect 28 0 92 0;
#X connect 28 0 94 0;
#X connect 31 0 29 0;
#X connect 32 0 30 0;
#X connect 34 0 25 0;
#X connect 35 0 25 0;
#X connect 36 0 40 1;
#X connect 36 0 41 1;
#X connect 37 0 40 0;
#X connect 38 0 41 0;
#X connect 39 0 38 1;
#X connect 39 0 37 1;
#X connect 40 0 19 0;
#X connect 40 0 10 0;
#X connect 41 0 19 1;
#X connect 41 0 11 0;
#X connect 42 0 151 0;
#X connect 43 0 39 0;
#X connect 45 0 42 0;
#X connect 52 0 20 0;
#X connect 57 0 139 0;
#X connect 62 0 74 0;
#X connect 62 0 99 0;
#X connect 66 0 64 1;
#X connect 66 0 64 0;
#X connect 67 0 68 0;
#X connect 67 1 69 0;
#X connect 67 2 70 0;
#X connect 68 0 108 0;
#X connect 69 0 129 0;
#X connect 71 0 116 0;
#X connect 74 0 78 0;
#X connect 75 0 71 0;
#X connect 75 1 72 0;
#X connect 75 2 73 0;
#X connect 76 0 267 0;
#X connect 77 0 76 0;
#X connect 77 1 207 0;
#X connect 77 2 209 0;
#X connect 78 0 67 0;
#X connect 78 1 75 0;
#X connect 78 2 82 0;
#X connect 78 3 77 0;
#X connect 82 0 79 0;
#X connect 82 1 80 0;
#X connect 82 2 81 0;
#X connect 82 3 83 0;
#X connect 84 0 89 0;
#X connect 85 0 90 0;
#X connect 86 0 85 1;
#X connect 86 0 84 1;
#X connect 87 0 91 0;
#X connect 88 0 86 0;
#X connect 89 0 33 0;
#X connect 89 0 27 0;
#X connect 90 0 33 1;
#X connect 90 0 28 0;
#X connect 91 0 89 1;
#X connect 91 0 90 1;
#X connect 91 0 97 0;
#X connect 92 0 93 0;
#X connect 97 0 98 0;
#X connect 98 0 88 0;
#X connect 100 0 62 0;
#X connect 100 0 113 0;
#X connect 101 0 112 1;
#X connect 101 0 108 1;
#X connect 102 0 112 0;
#X connect 103 0 129 1;
#X connect 103 0 133 1;
#X connect 104 0 133 0;
#X connect 106 0 109 0;
#X connect 108 0 106 0;
#X connect 109 0 110 0;
#X connect 110 0 114 0;
#X connect 111 0 109 1;
#X connect 112 0 111 0;
#X connect 113 0 103 0;
#X connect 113 0 101 0;
#X connect 113 0 102 0;
#X connect 113 0 104 0;
#X connect 115 0 117 0;
#X connect 115 0 141 0;
#X connect 115 0 145 0;
#X connect 116 0 46 0;
#X connect 117 0 122 0;
#X connect 117 0 147 0;
#X connect 118 0 119 0;
#X connect 120 0 65 0;
#X connect 120 0 65 1;
#X connect 122 0 149 0;
#X connect 123 0 124 0;
#X connect 124 0 140 0;
#X connect 125 0 3 0;
#X connect 127 0 58 0;
#X connect 128 0 130 0;
#X connect 129 0 128 0;
#X connect 130 0 131 0;
#X connect 131 0 134 0;
#X connect 132 0 130 1;
#X connect 133 0 132 0;
#X connect 135 0 265 0;
#X connect 135 0 266 0;
#X connect 136 0 137 0;
#X connect 137 0 140 1;
#X connect 138 0 135 0;
#X connect 138 0 153 0;
#X connect 139 0 36 0;
#X connect 140 0 165 0;
#X connect 141 0 124 0;
#X connect 141 1 137 0;
#X connect 144 0 125 0;
#X connect 145 0 148 0;
#X connect 145 1 149 0;
#X connect 146 0 123 0;
#X connect 147 0 148 0;
#X connect 148 0 146 0;
#X connect 149 0 146 1;
#X connect 151 0 40 2;
#X connect 151 0 41 2;
#X connect 152 0 154 1;
#X connect 153 0 155 0;
#X connect 153 1 152 0;
#X connect 154 0 136 0;
#X connect 155 0 154 0;
#X connect 156 0 159 0;
#X connect 157 0 158 0;
#X connect 159 0 165 1;
#X connect 161 0 159 0;
#X connect 162 0 160 0;
#X connect 163 0 125 1;
#X connect 165 0 144 0;
#X connect 165 0 163 0;
#X connect 165 0 166 0;
#X connect 168 0 169 0;
#X connect 169 0 184 0;
#X connect 169 1 185 0;
#X connect 169 2 188 0;
#X connect 170 0 168 0;
#X connect 170 1 176 0;
#X connect 170 2 172 0;
#X connect 171 0 169 0;
#X connect 173 0 170 0;
#X connect 174 0 438 0;
#X connect 175 0 7 0;
#X connect 176 0 169 0;
#X connect 177 0 181 0;
#X connect 178 0 182 0;
#X connect 181 0 179 0;
#X connect 182 0 180 0;
#X connect 184 0 183 0;
#X connect 184 0 177 0;
#X connect 185 0 183 1;
#X connect 185 0 178 0;
#X connect 186 0 185 1;
#X connect 186 0 184 1;
#X connect 187 0 186 0;
#X connect 188 0 191 0;
#X connect 189 0 190 0;
#X connect 190 0 195 0;
#X connect 190 1 196 0;
#X connect 191 0 189 0;
#X connect 191 1 199 0;
#X connect 191 2 193 0;
#X connect 192 0 190 0;
#X connect 195 0 194 0;
#X connect 196 0 194 1;
#X connect 197 0 196 1;
#X connect 197 0 195 1;
#X connect 198 0 197 0;
#X connect 199 0 190 0;
#X connect 201 0 202 0;
#X connect 203 0 187 0;
#X connect 204 0 198 0;
#X connect 206 0 211 0;
#X connect 207 0 268 0;
#X connect 208 0 212 0;
#X connect 209 0 269 0;
#X connect 210 0 213 0;
#X connect 215 0 227 0;
#X connect 216 0 174 0;
#X connect 216 0 223 0;
#X connect 217 0 225 0;
#X connect 218 0 219 0;
#X connect 219 0 221 1;
#X connect 221 0 217 0;
#X connect 221 0 226 0;
#X connect 221 0 228 0;
#X connect 222 0 219 0;
#X connect 223 0 224 0;
#X connect 225 0 216 0;
#X connect 226 0 225 1;
#X connect 227 0 270 0;
#X connect 229 0 230 0;
#X connect 230 0 242 0;
#X connect 230 1 243 0;
#X connect 230 2 277 0;
#X connect 231 0 229 0;
#X connect 231 1 291 0;
#X connect 231 2 233 0;
#X connect 232 0 230 0;
#X connect 234 0 231 0;
#X connect 235 0 239 0;
#X connect 236 0 240 0;
#X connect 239 0 237 0;
#X connect 240 0 238 0;
#X connect 242 0 241 0;
#X connect 242 0 235 0;
#X connect 243 0 241 1;
#X connect 243 0 236 0;
#X connect 244 0 243 1;
#X connect 244 0 242 1;
#X connect 245 0 244 0;
#X connect 246 0 245 0;
#X connect 247 0 248 0;
#X connect 248 0 259 0;
#X connect 248 1 260 0;
#X connect 248 2 0 0;
#X connect 249 0 247 0;
#X connect 249 1 264 0;
#X connect 249 2 251 0;
#X connect 250 0 248 0;
#X connect 252 0 256 0;
#X connect 253 0 257 0;
#X connect 256 0 254 0;
#X connect 257 0 255 0;
#X connect 259 0 258 0;
#X connect 259 0 252 0;
#X connect 260 0 258 1;
#X connect 260 0 253 0;
#X connect 261 0 260 1;
#X connect 261 0 259 1;
#X connect 262 0 261 0;
#X connect 263 0 262 0;
#X connect 264 0 248 0;
#X connect 265 0 155 0;
#X connect 266 0 152 0;
#X connect 267 0 206 0;
#X connect 268 0 208 0;
#X connect 269 0 210 0;
#X connect 270 0 221 0;
#X connect 271 0 249 0;
#X connect 272 0 273 0;
#X connect 273 0 285 0;
#X connect 273 1 286 0;
#X connect 273 2 271 0;
#X connect 274 0 272 0;
#X connect 274 1 290 0;
#X connect 274 2 276 0;
#X connect 275 0 273 0;
#X connect 277 0 274 0;
#X connect 278 0 282 0;
#X connect 279 0 283 0;
#X connect 282 0 280 0;
#X connect 283 0 281 0;
#X connect 285 0 284 0;
#X connect 285 0 278 0;
#X connect 286 0 284 1;
#X connect 286 0 279 0;
#X connect 287 0 286 1;
#X connect 287 0 285 1;
#X connect 288 0 287 0;
#X connect 289 0 288 0;
#X connect 290 0 273 0;
#X connect 291 0 230 0;
#X connect 292 0 294 0;
#X connect 295 0 43 0;
#X connect 296 0 297 0;
#X connect 297 0 308 0;
#X connect 297 1 309 0;
#X connect 298 0 296 0;
#X connect 298 1 458 0;
#X connect 298 2 300 0;
#X connect 299 0 297 0;
#X connect 301 0 305 0;
#X connect 302 0 306 0;
#X connect 305 0 303 0;
#X connect 306 0 304 0;
#X connect 308 0 307 0;
#X connect 308 0 301 0;
#X connect 309 0 307 1;
#X connect 309 0 302 0;
#X connect 310 0 309 1;
#X connect 310 0 308 1;
#X connect 311 0 310 0;
#X connect 312 0 311 0;
#X connect 313 0 298 0;
#X connect 314 0 315 0;
#X connect 314 0 324 0;
#X connect 314 0 326 0;
#X connect 315 0 478 0;
#X connect 315 0 479 0;
#X connect 316 0 317 0;
#X connect 317 0 323 0;
#X connect 318 0 4 0;
#X connect 319 0 480 0;
#X connect 319 0 481 0;
#X connect 320 0 321 0;
#X connect 321 0 323 1;
#X connect 322 0 319 0;
#X connect 322 0 331 0;
#X connect 323 0 339 0;
#X connect 324 0 317 0;
#X connect 324 1 321 0;
#X connect 325 0 318 0;
#X connect 326 0 328 0;
#X connect 326 1 329 0;
#X connect 327 0 316 0;
#X connect 328 0 327 0;
#X connect 329 0 327 1;
#X connect 330 0 332 1;
#X connect 331 0 333 0;
#X connect 331 1 330 0;
#X connect 332 0 320 0;
#X connect 333 0 332 0;
#X connect 334 0 335 0;
#X connect 335 0 339 1;
#X connect 336 0 342 0;
#X connect 337 0 318 1;
#X connect 339 0 325 0;
#X connect 339 0 337 0;
#X connect 339 0 340 0;
#X connect 343 0 335 0;
#X connect 344 0 438 0;
#X connect 345 0 346 0;
#X connect 346 0 358 0;
#X connect 346 1 359 0;
#X connect 346 2 381 0;
#X connect 347 0 345 0;
#X connect 347 1 363 0;
#X connect 347 2 349 0;
#X connect 348 0 346 0;
#X connect 350 0 347 0;
#X connect 351 0 355 0;
#X connect 352 0 356 0;
#X connect 355 0 353 0;
#X connect 356 0 354 0;
#X connect 358 0 357 0;
#X connect 358 0 351 0;
#X connect 359 0 357 1;
#X connect 359 0 352 0;
#X connect 360 0 359 1;
#X connect 360 0 358 1;
#X connect 361 0 360 0;
#X connect 362 0 361 0;
#X connect 363 0 346 0;
#X connect 366 0 371 0;
#X connect 366 0 382 0;
#X connect 367 0 372 0;
#X connect 368 0 370 1;
#X connect 370 0 367 0;
#X connect 370 0 373 0;
#X connect 370 0 375 0;
#X connect 371 0 378 0;
#X connect 372 0 366 0;
#X connect 373 0 372 1;
#X connect 374 0 376 0;
#X connect 376 0 370 0;
#X connect 377 0 374 0;
#X connect 379 0 368 0;
#X connect 380 0 368 0;
#X connect 381 0 364 0;
#X connect 382 0 438 0;
#X connect 383 0 384 0;
#X connect 384 0 396 0;
#X connect 384 1 397 0;
#X connect 384 2 464 0;
#X connect 385 0 383 0;
#X connect 385 1 401 0;
#X connect 385 2 387 0;
#X connect 386 0 384 0;
#X connect 388 0 385 0;
#X connect 389 0 393 0;
#X connect 390 0 394 0;
#X connect 393 0 391 0;
#X connect 394 0 392 0;
#X connect 396 0 395 0;
#X connect 396 0 389 0;
#X connect 397 0 395 1;
#X connect 397 0 390 0;
#X connect 398 0 397 1;
#X connect 398 0 396 1;
#X connect 399 0 398 0;
#X connect 400 0 399 0;
#X connect 401 0 384 0;
#X connect 402 0 425 0;
#X connect 402 0 437 0;
#X connect 403 0 404 0;
#X connect 403 0 413 0;
#X connect 403 0 415 0;
#X connect 404 0 433 0;
#X connect 404 0 434 0;
#X connect 405 0 406 0;
#X connect 406 0 412 0;
#X connect 407 0 402 0;
#X connect 408 0 435 0;
#X connect 408 0 436 0;
#X connect 409 0 410 0;
#X connect 410 0 412 1;
#X connect 411 0 408 0;
#X connect 411 0 420 0;
#X connect 412 0 428 0;
#X connect 413 0 406 0;
#X connect 413 1 410 0;
#X connect 414 0 407 0;
#X connect 415 0 417 0;
#X connect 415 1 418 0;
#X connect 416 0 405 0;
#X connect 417 0 416 0;
#X connect 418 0 416 1;
#X connect 419 0 421 1;
#X connect 420 0 422 0;
#X connect 420 1 419 0;
#X connect 421 0 409 0;
#X connect 422 0 421 0;
#X connect 423 0 424 0;
#X connect 424 0 428 1;
#X connect 425 0 431 0;
#X connect 426 0 407 1;
#X connect 428 0 414 0;
#X connect 428 0 426 0;
#X connect 428 0 429 0;
#X connect 432 0 424 0;
#X connect 433 0 418 0;
#X connect 434 0 417 0;
#X connect 435 0 422 0;
#X connect 436 0 419 0;
#X connect 437 0 438 0;
#X connect 438 0 173 0;
#X connect 438 1 234 0;
#X connect 438 2 350 0;
#X connect 438 3 388 0;
#X connect 438 4 444 0;
#X connect 439 0 440 0;
#X connect 440 0 452 0;
#X connect 440 1 453 0;
#X connect 440 2 1 0;
#X connect 441 0 439 0;
#X connect 441 1 457 0;
#X connect 441 2 443 0;
#X connect 442 0 440 0;
#X connect 444 0 441 0;
#X connect 445 0 449 0;
#X connect 446 0 450 0;
#X connect 449 0 447 0;
#X connect 450 0 448 0;
#X connect 452 0 451 0;
#X connect 452 0 445 0;
#X connect 453 0 451 1;
#X connect 453 0 446 0;
#X connect 454 0 453 1;
#X connect 454 0 452 1;
#X connect 455 0 454 0;
#X connect 456 0 455 0;
#X connect 457 0 440 0;
#X connect 458 0 297 0;
#X connect 459 0 460 0;
#X connect 460 0 472 0;
#X connect 460 1 473 0;
#X connect 461 0 459 0;
#X connect 461 1 477 0;
#X connect 461 2 463 0;
#X connect 462 0 460 0;
#X connect 464 0 461 0;
#X connect 465 0 469 0;
#X connect 466 0 470 0;
#X connect 469 0 467 0;
#X connect 470 0 468 0;
#X connect 472 0 471 0;
#X connect 472 0 465 0;
#X connect 473 0 471 1;
#X connect 473 0 466 0;
#X connect 474 0 473 1;
#X connect 474 0 472 1;
#X connect 475 0 474 0;
#X connect 476 0 475 0;
#X connect 477 0 460 0;
#X connect 478 0 328 0;
#X connect 479 0 329 0;
#X connect 480 0 330 0;
#X connect 481 0 333 0;
