#N canvas 1026 82 1073 592 16;
#X declare -lib mrpeach;
#X obj 336 165 import mrpeach;
#X obj 327 278 unpackOSC;
#X obj 327 231 udpreceive 9001;
#X obj 379 345 routeOSC /test;
#X obj 325 447 routeOSC /posi /ori;
#X obj 336 537 print;
#X obj 434 542 print;
#X connect 1 0 3 0;
#X connect 2 0 1 0;
#X connect 3 0 4 0;
#X connect 4 0 5 0;
#X connect 4 1 6 0;
