#N canvas 366 64 1073 592 10;
#X declare -lib mrpeach;
#X obj 336 165 import mrpeach;
#X obj 327 278 unpackOSC;
#X obj 592 305 udpsend;
#X msg 645 148 disconnect;
#X floatatom 665 193 5 0 0 0 - - -;
#X msg 667 225 send /test \$1;
#X obj 668 257 packOSC;
#X obj 327 324 print;
#X obj 327 231 udpreceive 9001;
#X floatatom 438 284 5 0 0 0 - - -;
#X msg 594 118 connect 172.30.40.85 9001;
#X connect 1 0 7 0;
#X connect 3 0 2 0;
#X connect 4 0 5 0;
#X connect 5 0 6 0;
#X connect 6 0 2 0;
#X connect 8 0 1 0;
#X connect 8 0 9 0;
#X connect 10 0 2 0;
