#N canvas 0 50 450 300 10;
#N canvas 574 50 477 716 (subpatch) 0;
#X obj 0 1 cnv 15 130 20 empty empty DistortusOne_V0.1 0 10 0 12 -260097
-1 0;
#X obj 280 9 inlet~;
#X obj 280 543 outlet~;
#N canvas 0 50 566 300 spigot~ 0;
#X obj 63 24 inlet~;
#X obj 95 75 == 0;
#X obj 174 75 == 1;
#X obj 64 174 *~;
#X obj 180 166 *~;
#X obj 179 246 outlet~;
#X obj 63 244 outlet~;
#X obj 233 23 inlet;
#X connect 0 0 3 0;
#X connect 0 0 4 0;
#X connect 1 0 3 1;
#X connect 2 0 4 1;
#X connect 3 0 6 0;
#X connect 4 0 5 0;
#X connect 7 0 1 0;
#X connect 7 0 2 0;
#X restore 280 44 pd spigot~;
#X obj 281 473 +~;
#X obj 95 23 tgl 15 0 empty empty On 17 7 0 10 -262144 -1 -1 0 1;
#X msg 146 20 0;
#X obj 191 15 loadbang;
#X obj 12 55 hsl 100 15 0 10 0 0 empty empty Dist -2 -8 0 10 -262144
-1 -1 4950 1;
#X obj 12 90 hsl 100 15 0.01 1 1 0 empty empty Level -2 -8 0 10 -262144
-1 -1 6440 1;
#X obj 12 119 hsl 100 15 0.01 1 0 0 empty empty Tone -2 -8 0 10 -262144
-1 -1 1900 1;
#N canvas 0 50 450 300 1stStage 0;
#X obj 97 29 inlet~;
#X obj 98 214 outlet~;
#X obj 97 91 hip~ 7.204;
#X obj 96 128 clip~ -2.9 100;
#X connect 0 0 2 0;
#X connect 2 0 3 0;
#X connect 3 0 1 0;
#X restore 348 76 pd 1stStage;
#N canvas 769 237 450 407 2ndStage 0;
#X obj 31 18 inlet~;
#X obj 31 54 hip~ 3.386;
#X obj 29 377 outlet~;
#X obj 32 79 hip~ 33.86;
#X obj 31 144 clip~ -0.9 7.2;
#X obj 32 110 +~ 3.5;
#X obj 30 331 +~;
#X obj 30 278 *~ -37;
#X connect 0 0 1 0;
#X connect 1 0 3 0;
#X connect 3 0 5 0;
#X connect 4 0 7 0;
#X connect 5 0 4 0;
#X connect 6 0 2 0;
#X connect 7 0 6 0;
#X restore 348 113 pd 2ndStage;
#X obj 279 505 hip~ 5;
#N canvas 792 147 450 390 3rdStage 0;
#X obj 21 10 inlet~;
#X obj 21 301 outlet~;
#X obj 22 42 hip~ 23.4;
#X obj 151 12 inlet;
#X obj 70 174 + 3;
#X obj 19 174 hip~;
#X obj 118 174 * 6.9;
#X floatatom 72 202 5 0 0 0 - - -, f 5;
#X obj 21 106 *~;
#X obj 60 105 * 2;
#X obj 21 72 +~ 4.5;
#X obj 22 256 lop~ 7200;
#X obj 20 142 clip~ 0 100;
#X connect 0 0 2 0;
#X connect 2 0 10 0;
#X connect 3 0 6 0;
#X connect 3 0 9 0;
#X connect 4 0 5 1;
#X connect 4 0 7 0;
#X connect 5 0 11 0;
#X connect 6 0 4 0;
#X connect 8 0 12 0;
#X connect 9 0 8 1;
#X connect 10 0 8 0;
#X connect 11 0 1 0;
#X connect 12 0 5 0;
#X restore 350 163 pd 3rdStage;
#X obj 352 289 clip~ -12 12;
#N canvas 494 177 450 456 ToneStack 0;
#X obj 47 14 inlet~;
#X obj 40 392 outlet~;
#X obj 167 15 inlet;
#X obj 267 15 inlet;
#X obj 209 128 hip~ 1063;
#X obj 47 56 +~;
#X obj 209 175 *~;
#X obj 41 172 *~;
#X floatatom 75 206 5 0 0 0 - - -, f 5;
#X obj 73 172 + 0.3;
#X obj 127 172 * -0.1;
#X floatatom 254 196 5 0 0 0 - - -, f 5;
#X obj 42 255 +~;
#X obj 41 298 *~;
#X obj 79 299 * 1;
#X obj 254 174 * 1;
#X obj 42 130 lop~ 434;
#X connect 0 0 5 0;
#X connect 2 0 10 0;
#X connect 2 0 15 0;
#X connect 3 0 14 0;
#X connect 4 0 6 0;
#X connect 5 0 4 0;
#X connect 5 0 16 0;
#X connect 6 0 12 1;
#X connect 7 0 12 0;
#X connect 9 0 7 1;
#X connect 9 0 8 0;
#X connect 10 0 9 0;
#X connect 12 0 13 0;
#X connect 13 0 1 0;
#X connect 14 0 13 1;
#X connect 15 0 6 1;
#X connect 15 0 11 0;
#X connect 16 0 7 0;
#X restore 353 338 pd ToneStack;
#X obj 353 374 hip~ 3.4;
#X obj 354 451 hip~ 1.6;
#X obj 11 24 tgl 15 0 empty empty GainUP 17 7 0 10 -262144 -1 -1 0
1;
#X msg 153 55 5;
#X msg 157 96 0.2;
#N canvas 0 50 566 300 spigot~ 0;
#X obj 63 24 inlet~;
#X obj 95 75 == 0;
#X obj 174 75 == 1;
#X obj 64 174 *~;
#X obj 180 166 *~;
#X obj 179 246 outlet~;
#X obj 63 244 outlet~;
#X obj 233 23 inlet;
#X connect 0 0 3 0;
#X connect 0 0 4 0;
#X connect 1 0 3 1;
#X connect 2 0 4 1;
#X connect 3 0 6 0;
#X connect 4 0 5 0;
#X connect 7 0 1 0;
#X connect 7 0 2 0;
#X restore 349 192 pd spigot~;
#X obj 351 256 +~;
#X obj 397 226 *~ 5;
#X obj 350 227 *~ 1;
#X connect 1 0 3 0;
#X connect 3 0 4 0;
#X connect 3 1 11 0;
#X connect 4 0 13 0;
#X connect 5 0 3 1;
#X connect 6 0 5 0;
#X connect 6 0 19 0;
#X connect 7 0 6 0;
#X connect 7 0 20 0;
#X connect 7 0 21 0;
#X connect 8 0 14 1;
#X connect 9 0 16 2;
#X connect 10 0 16 1;
#X connect 11 0 12 0;
#X connect 12 0 14 0;
#X connect 13 0 2 0;
#X connect 14 0 22 0;
#X connect 15 0 16 0;
#X connect 16 0 17 0;
#X connect 17 0 18 0;
#X connect 18 0 4 1;
#X connect 19 0 22 1;
#X connect 20 0 8 0;
#X connect 21 0 9 0;
#X connect 21 0 10 0;
#X connect 22 0 25 0;
#X connect 22 1 24 0;
#X connect 23 0 15 0;
#X connect 24 0 23 1;
#X connect 25 0 23 0;
#X coords 0 1 100 -1 130 140 1 0 0;
#X restore 34 69 graph;
#X obj 34 24 adc~;
#X obj 35 253 dac~;
#X connect 0 0 2 0;
#X connect 0 0 2 1;
#X connect 1 0 0 0;
