#N canvas -7 1 1916 964 16;
#X declare -lib mrpeach;
#X obj 279 384 bng 15 250 50 0 empty empty empty 17 7 0 10 -262144
-1 -1;
#X obj 778 381 bng 15 250 50 0 empty empty empty 17 7 0 10 -262144
-1 -1;
#X obj 366 319 select remix nf;
#X msg 366 178 symbol remix;
#X msg 540 177 symbol nf;
#X obj 366 65 bng 15 250 50 0 empty empty empty 17 7 0 10 -262144 -1
-1;
#X obj 540 63 bng 15 250 50 0 empty empty empty 17 7 0 10 -262144 -1
-1;
#X text -9 317 Multiplexing from names;
#X msg 279 458 start;
#X obj 387 533 readsf~ 2;
#X obj 279 414 trigger bang bang bang;
#X text -5 116 Global STOP;
#X obj 376 791 env~;
#X obj 435 791 env~;
#X obj 381 872 vu 15 120 empty empty -1 -8 0 10 -66577 -1 1 0;
#X obj 439 873 vu 15 120 empty empty -1 -8 0 10 -66577 -1 1 0;
#X msg 387 489 open remix2.wav;
#X obj 394 829 - 100;
#X obj 457 829 - 100;
#X text -7 819 "vu" objects to clearly;
#X text -5 859 playing;
#X text -5 838 monitor which song is;
#X text -5 173 Clear Song Selection;
#X text -5 194 with names;
#X obj 385 749 dac~ 1 2;
#X msg 140 110 stop;
#X obj 278 510 r toStop;
#X obj 140 147 s toStop;
#X msg 779 453 start;
#X obj 974 566 bng 15 250 50 0 empty empty empty 17 7 0 10 -262144
-1 -1;
#X obj 887 528 readsf~ 2;
#X obj 779 409 trigger bang bang bang;
#X obj 874 786 env~;
#X obj 919 786 env~;
#X obj 874 867 vu 15 120 empty empty -1 -8 0 10 -66577 -1 1 0;
#X obj 932 868 vu 15 120 empty empty -1 -8 0 10 -66577 -1 1 0;
#X obj 887 824 - 100;
#X obj 950 824 - 100;
#X obj 878 744 dac~ 1 2;
#X obj 778 505 r toStop;
#X msg 887 484 open nf.wav;
#X floatatom 295 671 5 140 600 0 Freq_coupure - -;
#X obj 386 615 *~;
#X obj 462 614 *~;
#X obj 511 637 line;
#X obj 514 582 hsl 128 15 0 1 0 0 empty empty Volume_adjustment -2
-8 0 10 -262144 -1 -1 0 1;
#X obj 385 696 bp~;
#X obj 462 696 bp~;
#X floatatom 298 744 5 0 7 0 Cut - -;
#X msg 511 607 \$1 5;
#X text -10 654 Filtre passe bas;
#X obj 174 710 receive cut;
#X obj 1440 690 send cut;
#X text 1434 636 en fonction de la position cut les hautes freq;
#X text 7 19 TRAITEMENT SON;
#X text 1240 12 RECEPTION OSC;
#X text -11 343 All the songs;
#X obj 496 459 s toStopTheOtherSongs;
#X obj 996 454 s toStopTheOtherSongs;
#X obj 140 72 r toStopTheOtherSongs;
#X text -9 405 trigger to;
#X text -1 426 1 stop all songs;
#X text -2 446 2 load the chosen song;
#X text -3 465 3 start the chosen song;
#X obj 173 636 receive freq_c;
#X obj 1441 750 send freq_c;
#X floatatom 1284 684 7 0 7 0 - - -;
#X floatatom 1290 746 5 140 600 0 - - -;
#X text 1438 660 position x;
#X text 1439 722 position y;
#X obj 1299 91 import mrpeach;
#X obj 1290 204 unpackOSC;
#X obj 1290 157 udpreceive 9001;
#X floatatom 408 -95 5 0 0 0 - - -;
#X text 7 -132 LOGIC;
#X obj 808 -19 spigot;
#X obj 669 -8 spigot;
#X obj 924 -58 moses 50;
#X obj 803 -61 == 25;
#X obj 669 -44 == 50;
#X obj 407 -19 route 10 15 50 55;
#X obj 1213 333 routeOSC /x /y /z;
#X floatatom 1216 407 5 0 0 0 - - -;
#X floatatom 1271 408 5 0 0 0 - - -;
#X floatatom 1332 410 5 0 0 0 - - -;
#X floatatom 1448 518 5 0 0 0 - - -;
#X floatatom 1503 519 5 0 0 0 - - -;
#X floatatom 1564 521 5 0 0 0 - - -;
#X obj 1286 243 routeOSC /test;
#X obj 1439 456 routeOSC /x /y /z;
#X floatatom 1692 384 5 0 0 0 - - -;
#X floatatom 1770 390 5 0 0 0 - - -;
#X floatatom 1831 392 5 0 0 0 - - -;
#X obj 1683 322 routeOSC /x /y /z;
#X obj 1274 279 routeOSC /posi /ori /quat /accel;
#X floatatom 1435 411 5 0 0 0 - - -;
#X floatatom 1490 412 5 0 0 0 - - -;
#X floatatom 1551 414 5 0 0 0 - - -;
#X obj 1426 349 routeOSC /r /i /j /k;
#X floatatom 1616 410 5 0 0 0 - - -;
#X obj 874 610 *~;
#X obj 950 609 *~;
#X obj 1005 657 line;
#X obj 689 597 receive freq_c;
#X floatatom 1047 606 5 1 20 0 - - -;
#X obj 868 704 lop~;
#X obj 951 707 lop~;
#X obj 689 654 hsl 128 15 60 8000 0 0 empty empty Freq_coupure -2 -8
0 10 -262144 -1 -1 0 1;
#X obj 1046 752 dbtorms;
#X floatatom 1115 796 5 0 0 0 - - -;
#X floatatom 1039 879 5 0 0 0 - - -;
#X text 584 695 best set to freq_coup = 60;
#X text 1022 573 best set to line = 5;
#X obj 694 762 * -0.000504;
#X obj 737 810 + 5 \, 2;
#X connect 0 0 10 0;
#X connect 1 0 31 0;
#X connect 2 0 0 0;
#X connect 2 1 1 0;
#X connect 3 0 2 0;
#X connect 4 0 2 0;
#X connect 5 0 3 0;
#X connect 6 0 4 0;
#X connect 8 0 9 0;
#X connect 9 0 42 0;
#X connect 9 1 43 0;
#X connect 10 0 8 0;
#X connect 10 1 16 0;
#X connect 10 2 57 0;
#X connect 12 0 17 0;
#X connect 13 0 18 0;
#X connect 16 0 9 0;
#X connect 17 0 14 0;
#X connect 18 0 15 0;
#X connect 25 0 27 0;
#X connect 26 0 9 0;
#X connect 28 0 30 0;
#X connect 30 0 100 0;
#X connect 30 1 101 0;
#X connect 30 2 29 0;
#X connect 31 0 28 0;
#X connect 31 1 40 0;
#X connect 31 2 58 0;
#X connect 32 0 36 0;
#X connect 33 0 37 0;
#X connect 33 0 108 0;
#X connect 33 0 110 0;
#X connect 36 0 34 0;
#X connect 37 0 35 0;
#X connect 39 0 30 0;
#X connect 40 0 30 0;
#X connect 41 0 46 1;
#X connect 41 0 47 1;
#X connect 42 0 46 0;
#X connect 43 0 47 0;
#X connect 44 0 43 1;
#X connect 44 0 42 1;
#X connect 45 0 49 0;
#X connect 46 0 24 0;
#X connect 46 0 12 0;
#X connect 47 0 24 1;
#X connect 47 0 13 0;
#X connect 48 0 46 2;
#X connect 48 0 47 2;
#X connect 49 0 44 0;
#X connect 51 0 48 0;
#X connect 59 0 25 0;
#X connect 64 0 41 0;
#X connect 66 0 52 0;
#X connect 67 0 65 0;
#X connect 71 0 88 0;
#X connect 72 0 71 0;
#X connect 73 0 80 0;
#X connect 78 0 75 1;
#X connect 78 0 75 0;
#X connect 79 0 76 0;
#X connect 79 0 76 1;
#X connect 80 0 5 0;
#X connect 80 1 5 0;
#X connect 80 2 6 0;
#X connect 80 3 6 0;
#X connect 81 0 82 0;
#X connect 81 1 83 0;
#X connect 81 2 84 0;
#X connect 88 0 94 0;
#X connect 89 0 85 0;
#X connect 89 1 86 0;
#X connect 89 2 87 0;
#X connect 93 0 90 0;
#X connect 93 1 91 0;
#X connect 93 2 92 0;
#X connect 94 0 81 0;
#X connect 94 1 89 0;
#X connect 94 2 98 0;
#X connect 94 3 93 0;
#X connect 98 0 95 0;
#X connect 98 1 96 0;
#X connect 98 2 97 0;
#X connect 98 3 99 0;
#X connect 100 0 105 0;
#X connect 101 0 106 0;
#X connect 102 0 101 1;
#X connect 102 0 100 1;
#X connect 103 0 107 0;
#X connect 104 0 102 0;
#X connect 105 0 38 0;
#X connect 105 0 32 0;
#X connect 106 0 38 1;
#X connect 106 0 33 0;
#X connect 107 0 105 1;
#X connect 107 0 106 1;
#X connect 107 0 113 0;
#X connect 108 0 109 0;
#X connect 113 0 114 0;
#X connect 114 0 104 0;
