#N canvas 0 0 1920 997 16;
#X obj 279 384 bng 15 250 50 0 empty empty empty 17 7 0 10 -262144
-1 -1;
#X obj 778 381 bng 15 250 50 0 empty empty empty 17 7 0 10 -262144
-1 -1;
#X obj 366 319 select remix nf;
#X msg 366 178 symbol remix;
#X msg 540 177 symbol nf;
#X obj 366 65 bng 15 250 50 0 empty empty empty 17 7 0 10 -262144 -1
-1;
#X obj 540 63 bng 15 250 50 0 empty empty empty 17 7 0 10 -262144 -1
-1;
#X text -9 317 Multiplexing from names;
#X msg 279 458 start;
#X obj 387 533 readsf~ 2;
#X obj 279 414 trigger bang bang bang;
#X text -5 116 Global STOP;
#X obj 376 791 env~;
#X obj 435 791 env~;
#X obj 381 872 vu 15 120 empty empty -1 -8 0 10 -66577 -1 1 0;
#X obj 439 873 vu 15 120 empty empty -1 -8 0 10 -66577 -1 1 0;
#X msg 387 489 open remix2.wav;
#X obj 394 829 - 100;
#X obj 457 829 - 100;
#X text -7 819 "vu" objects to clearly;
#X text -5 859 playing;
#X text -5 838 monitor which song is;
#X text -5 173 Clear Song Selection;
#X text -5 194 with names;
#X obj 385 749 dac~ 1 2;
#X msg 140 110 stop;
#X obj 278 510 r toStop;
#X obj 140 147 s toStop;
#X msg 779 453 start;
#X obj 974 566 bng 15 250 50 0 empty empty empty 17 7 0 10 -262144
-1 -1;
#X obj 887 528 readsf~ 2;
#X obj 779 409 trigger bang bang bang;
#X obj 874 786 env~;
#X obj 919 786 env~;
#X obj 874 867 vu 15 120 empty empty -1 -8 0 10 -66577 -1 1 0;
#X obj 932 868 vu 15 120 empty empty -1 -8 0 10 -66577 -1 1 0;
#X obj 887 824 - 100;
#X obj 950 824 - 100;
#N canvas 1104 162 584 716 (subpatch) 0;
#X obj 0 1 cnv 15 130 20 empty empty DistortusOne_V0.1 0 10 0 12 -260097
-1 0;
#X obj 280 9 inlet~;
#X obj 280 543 outlet~;
#N canvas 0 50 566 300 spigot~ 0;
#X obj 63 24 inlet~;
#X obj 95 75 == 0;
#X obj 174 75 == 1;
#X obj 64 174 *~;
#X obj 180 166 *~;
#X obj 179 246 outlet~;
#X obj 63 244 outlet~;
#X obj 233 23 inlet;
#X connect 0 0 3 0;
#X connect 0 0 4 0;
#X connect 1 0 3 1;
#X connect 2 0 4 1;
#X connect 3 0 6 0;
#X connect 4 0 5 0;
#X connect 7 0 1 0;
#X connect 7 0 2 0;
#X restore 280 44 pd spigot~;
#X obj 281 473 +~;
#X obj 95 23 tgl 15 0 empty empty On 17 7 0 10 -262144 -1 -1 0 1;
#X msg 146 20 0;
#X obj 191 15 loadbang;
#X obj 12 55 hsl 100 15 0 10 0 0 empty empty Dist -2 -8 0 10 -262144
-1 -1 4950 1;
#X obj 12 90 hsl 100 15 0.01 1 1 0 empty empty Level -2 -8 0 10 -262144
-1 -1 6440 1;
#X obj 12 119 hsl 100 15 0.01 1 0 0 empty empty Tone -2 -8 0 10 -262144
-1 -1 1900 1;
#N canvas 0 50 450 300 1stStage 0;
#X obj 97 29 inlet~;
#X obj 98 214 outlet~;
#X obj 97 91 hip~ 7.204;
#X obj 96 128 clip~ -2.9 100;
#X connect 0 0 2 0;
#X connect 2 0 3 0;
#X connect 3 0 1 0;
#X restore 348 76 pd 1stStage;
#N canvas 769 237 450 407 2ndStage 0;
#X obj 31 18 inlet~;
#X obj 31 54 hip~ 3.386;
#X obj 29 377 outlet~;
#X obj 32 79 hip~ 33.86;
#X obj 31 144 clip~ -0.9 7.2;
#X obj 32 110 +~ 3.5;
#X obj 30 331 +~;
#X obj 30 278 *~ -37;
#X connect 0 0 1 0;
#X connect 1 0 3 0;
#X connect 3 0 5 0;
#X connect 4 0 7 0;
#X connect 5 0 4 0;
#X connect 6 0 2 0;
#X connect 7 0 6 0;
#X restore 348 113 pd 2ndStage;
#X obj 279 505 hip~ 5;
#N canvas 792 147 450 390 3rdStage 0;
#X obj 21 10 inlet~;
#X obj 21 301 outlet~;
#X obj 22 42 hip~ 23.4;
#X obj 151 12 inlet;
#X obj 70 174 + 3;
#X obj 19 174 hip~;
#X obj 118 174 * 6.9;
#X floatatom 72 202 5 0 0 0 - - -;
#X obj 21 106 *~;
#X obj 60 105 * 2;
#X obj 21 72 +~ 4.5;
#X obj 22 256 lop~ 7200;
#X obj 20 142 clip~ 0 100;
#X connect 0 0 2 0;
#X connect 2 0 10 0;
#X connect 3 0 6 0;
#X connect 3 0 9 0;
#X connect 4 0 5 1;
#X connect 4 0 7 0;
#X connect 5 0 11 0;
#X connect 6 0 4 0;
#X connect 8 0 12 0;
#X connect 9 0 8 1;
#X connect 10 0 8 0;
#X connect 11 0 1 0;
#X connect 12 0 5 0;
#X restore 350 163 pd 3rdStage;
#X obj 352 289 clip~ -12 12;
#N canvas 494 177 450 456 ToneStack 0;
#X obj 47 14 inlet~;
#X obj 40 392 outlet~;
#X obj 167 15 inlet;
#X obj 267 15 inlet;
#X obj 209 128 hip~ 1063;
#X obj 47 56 +~;
#X obj 209 175 *~;
#X obj 41 172 *~;
#X floatatom 75 206 5 0 0 0 - - -;
#X obj 73 172 + 0.3;
#X obj 127 172 * -0.1;
#X floatatom 254 196 5 0 0 0 - - -;
#X obj 42 255 +~;
#X obj 41 298 *~;
#X obj 79 299 * 1;
#X obj 254 174 * 1;
#X obj 42 130 lop~ 434;
#X connect 0 0 5 0;
#X connect 2 0 10 0;
#X connect 2 0 15 0;
#X connect 3 0 14 0;
#X connect 4 0 6 0;
#X connect 5 0 4 0;
#X connect 5 0 16 0;
#X connect 6 0 12 1;
#X connect 7 0 12 0;
#X connect 9 0 7 1;
#X connect 9 0 8 0;
#X connect 10 0 9 0;
#X connect 12 0 13 0;
#X connect 13 0 1 0;
#X connect 14 0 13 1;
#X connect 15 0 6 1;
#X connect 15 0 11 0;
#X connect 16 0 7 0;
#X restore 353 338 pd ToneStack;
#X obj 353 374 hip~ 3.4;
#X obj 354 451 hip~ 1.6;
#X obj 11 24 tgl 15 0 empty empty GainUP 17 7 0 10 -262144 -1 -1 0
1;
#X msg 157 96 0.2;
#N canvas 0 50 566 300 spigot~ 0;
#X obj 63 24 inlet~;
#X obj 95 75 == 0;
#X obj 174 75 == 1;
#X obj 64 174 *~;
#X obj 180 166 *~;
#X obj 179 246 outlet~;
#X obj 63 244 outlet~;
#X obj 233 23 inlet;
#X connect 0 0 3 0;
#X connect 0 0 4 0;
#X connect 1 0 3 1;
#X connect 2 0 4 1;
#X connect 3 0 6 0;
#X connect 4 0 5 0;
#X connect 7 0 1 0;
#X connect 7 0 2 0;
#X restore 349 192 pd spigot~;
#X obj 351 256 +~;
#X obj 397 226 *~ 5;
#X obj 350 227 *~ 1;
#X obj 90 215 inlet;
#X msg 203 59 5;
#X connect 1 0 3 0;
#X connect 3 0 4 0;
#X connect 3 1 11 0;
#X connect 4 0 13 0;
#X connect 5 0 3 1;
#X connect 6 0 5 0;
#X connect 6 0 19 0;
#X connect 7 0 6 0;
#X connect 7 0 26 0;
#X connect 7 0 20 0;
#X connect 9 0 16 2;
#X connect 10 0 16 1;
#X connect 11 0 12 0;
#X connect 12 0 14 0;
#X connect 13 0 2 0;
#X connect 14 0 21 0;
#X connect 15 0 16 0;
#X connect 16 0 17 0;
#X connect 17 0 18 0;
#X connect 18 0 4 1;
#X connect 19 0 21 1;
#X connect 20 0 9 0;
#X connect 20 0 10 0;
#X connect 21 0 24 0;
#X connect 21 1 23 0;
#X connect 22 0 15 0;
#X connect 23 0 22 1;
#X connect 24 0 22 0;
#X connect 25 0 10 0;
#X connect 26 0 8 0;
#X coords 0 1 100 -1 130 140 1 0 0;
#X restore 830 588 graph;
#X obj 878 744 dac~ 1 2;
#X obj 778 505 r toStop;
#X msg 887 484 open nf.wav;
#X floatatom 741 676 5 0.01 1 0 - - -;
#X floatatom 741 594 5 0 100 0 - - -;
#X obj 741 635 / 100;
#X floatatom 302 674 5 140 600 0 Freq_coupure - -;
#X obj 386 615 *~;
#X obj 462 614 *~;
#X obj 511 637 line;
#X obj 514 582 hsl 128 15 0 1 0 0 empty empty Volume_adjustment -2
-8 0 10 -262144 -1 -1 0 1;
#X obj 385 696 bp~;
#X obj 462 696 bp~;
#X floatatom 298 744 5 0 7 0 Cut - -;
#X msg 511 607 \$1 5;
#X text -10 654 Filtre passe bas;
#X obj 174 710 receive cut;
#X obj 1468 582 send cut;
#X text 1462 528 en fonction de la position cut les hautes freq;
#X text 7 19 TRAITEMENT SON;
#X text -11 343 All the songs;
#X obj 496 459 s toStopTheOtherSongs;
#X obj 996 454 s toStopTheOtherSongs;
#X obj 140 72 r toStopTheOtherSongs;
#X text -9 405 trigger to;
#X text -1 426 1 stop all songs;
#X text -2 446 2 load the chosen song;
#X text -3 465 3 start the chosen song;
#X obj 173 636 receive freq_c;
#X obj 1469 642 send freq_c;
#X floatatom 1293 575 5 0 7 0 - - -;
#X floatatom 1299 637 5 140 600 0 - - -;
#X text 1466 552 position x;
#X text 1467 614 position y;
#X connect 0 0 10 0;
#X connect 1 0 31 0;
#X connect 2 0 0 0;
#X connect 2 1 1 0;
#X connect 3 0 2 0;
#X connect 4 0 2 0;
#X connect 5 0 3 0;
#X connect 6 0 4 0;
#X connect 8 0 9 0;
#X connect 9 0 46 0;
#X connect 9 1 47 0;
#X connect 10 0 8 0;
#X connect 10 1 16 0;
#X connect 10 2 60 0;
#X connect 12 0 17 0;
#X connect 13 0 18 0;
#X connect 16 0 9 0;
#X connect 17 0 14 0;
#X connect 18 0 15 0;
#X connect 25 0 27 0;
#X connect 26 0 9 0;
#X connect 28 0 30 0;
#X connect 30 0 38 1;
#X connect 30 1 38 1;
#X connect 30 2 29 0;
#X connect 31 0 28 0;
#X connect 31 1 41 0;
#X connect 31 2 61 0;
#X connect 32 0 36 0;
#X connect 33 0 37 0;
#X connect 36 0 34 0;
#X connect 37 0 35 0;
#X connect 38 0 39 0;
#X connect 38 0 39 1;
#X connect 38 0 32 0;
#X connect 38 0 33 0;
#X connect 40 0 30 0;
#X connect 41 0 30 0;
#X connect 42 0 38 0;
#X connect 43 0 44 0;
#X connect 44 0 42 0;
#X connect 45 0 50 1;
#X connect 45 0 51 1;
#X connect 46 0 50 0;
#X connect 47 0 51 0;
#X connect 48 0 47 1;
#X connect 48 0 46 1;
#X connect 49 0 53 0;
#X connect 50 0 24 0;
#X connect 50 0 12 0;
#X connect 51 0 24 1;
#X connect 51 0 13 0;
#X connect 52 0 50 2;
#X connect 52 0 51 2;
#X connect 53 0 48 0;
#X connect 55 0 52 0;
#X connect 62 0 25 0;
#X connect 67 0 45 0;
#X connect 69 0 56 0;
#X connect 70 0 68 0;
